<?xml version='1.0' encoding='UTF-8'?>
<!-- Created with Inkscape (http://www.inkscape.org/) -->
<svg xmlns:inkscape="http://www.inkscape.org/namespaces/inkscape" xmlns:sodipodi="http://sodipodi.sourceforge.net/DTD/sodipodi-0.dtd" xmlns="http://www.w3.org/2000/svg" xmlns:svg="http://www.w3.org/2000/svg" width="33.790157mm" height="53.378078mm" viewBox="0 0 33.790157 53.378078" version="1.1" id="svg1" xml:space="preserve" inkscape:version="1.4.4 (dcaf3e7, 2026-05-05)" sodipodi:docname="小洛宝.svg" inkscape:export-filename="小洛宝.svg" inkscape:export-xdpi="95.915237" inkscape:export-ydpi="95.915237">
  <sodipodi:namedview id="namedview1" pagecolor="#5f007f" bordercolor="#000000" borderopacity="0.25" inkscape:showpageshadow="2" inkscape:pageopacity="0.0" inkscape:pagecheckerboard="0" inkscape:deskcolor="#d1d1d1" inkscape:document-units="mm" inkscape:zoom="5.6568543" inkscape:cx="35.974057" inkscape:cy="105.09375" inkscape:window-width="2560" inkscape:window-height="1494" inkscape:window-x="-11" inkscape:window-y="153" inkscape:window-maximized="1" inkscape:current-layer="layer33">
    <inkscape:page x="0" y="0" width="33.790157" height="53.378078" id="page1" margin="0" bleed="0"/>
  </sodipodi:namedview>
  <defs id="defs1"/>
  <g inkscape:groupmode="layer" id="layer24" inkscape:label="character" style="display:inline">
    <g inkscape:groupmode="layer" id="layer13" inkscape:label="hair_tail_left" style="display:inline">
      <path style="display:inline;fill:#bbbcc8;fill-opacity:1;stroke-width:0.169051" id="rect3-9-2-1-8-7" d="M 6.92594 28.0416 L 10.8779 28.7883 L 9.74496 34.7853 L 5.79296 34.0387 z"/>
      <path style="display:inline;fill:#bbbcc8;fill-opacity:1;stroke-width:0.179714" id="rect3-9-2-1-8-7-6" d="M 5.75321 33.0203 L 9.95449 33.814 L 8.75005 40.1893 L 4.54877 39.3956 z"/>
      <path style="display:inline;fill:#bbbcc8;fill-opacity:1;stroke-width:0.134949" id="rect3-9-2-1-8-7-6-4" d="M 1.74642 46.0353 L 4.84423 46.6422 L 3.95613 51.5171 L 0.858332 50.9102 z"/>
      <path style="display:inline;fill:#bbbcc8;fill-opacity:1;stroke-width:0.134949" id="rect3-9-2-1-8-7-6-4-0" d="M 4.18014 45.6084 L 6.75842 47.4297 L 3.95339 51.5145 L 1.37511 49.6932 z"/>
      <path style="display:inline;fill:#bbbcc8;fill-opacity:1;stroke-width:0.134949" id="rect3-9-2-1-8-7-6-4-0-8" d="M 5.88266 41.6016 L 8.75222 42.917 L 6.74733 47.4484 L 3.87776 46.133 z"/>
      <path style="display:inline;fill:#bbbcc8;fill-opacity:1;stroke-width:0.134949" id="rect3-9-2-1-8-7-6-4-0-8-2" d="M 6.6105 37.4191 L 9.70012 38.0664 L 8.7485 42.9293 L 5.65888 42.282 z"/>
      <path style="display:inline;fill:#bbbcc8;fill-opacity:1;stroke-width:0.0915859" id="rect3-9-2-1-8-7-6-4-0-8-2-6" d="M 7.69033 34.6085 L 9.82977 34.7202 L 9.69901 38.0806 L 7.55957 37.9689 z"/>
      <path style="display:inline;fill:#bbbcc8;fill-opacity:1;stroke-width:0.222772" id="rect3-9-2-1-8-7-6-4-5" d="M 3.81992 38.1354 L 8.70991 39.6583 L 6.43002 47.6626 L 1.54003 46.1397 z"/>
      <path style="display:inline;fill:#bbbcc8;fill-opacity:1;stroke-width:0.109223" id="rect3-9-2-1-8-7-6-4-5-4" d="M 5.49379 34.5492 L 7.61377 35.895 L 5.51159 39.3923 L 3.39161 38.0465 z"/>
      <path style="display:inline;fill:#bbbcc8;fill-opacity:1;stroke-width:0.109223" id="rect3-9-2-1-8-7-6-4-5-4-8" d="M 3.3991 38.0288 L 5.96206 39.2077 L 4.06625 43.6092 L 1.5033 42.4303 z"/>
      <path style="display:inline;fill:#bbbcc8;fill-opacity:1;stroke-width:0.109223" id="rect3-9-2-1-8-7-6-4-5-4-8-9" d="M 1.50403 42.4241 L 4.27206 42.9687 L 3.46206 47.6922 L 0.694033 47.1476 z"/>
      <path style="display:inline;fill:#bbbcc8;fill-opacity:1;stroke-width:0.0839378" id="rect3-9-2-1-8-7-6-4-5-4-8-9-2" d="M 0.724569 47.1374 L 3.08821 47.1186 L 3.21019 50.8839 L 0.846541 50.9027 z"/>
      <path style="opacity:1;fill:#b7dff3;fill-opacity:1;stroke-width:0.270611" id="rect7" d="M 5.81574 31.5564 L 10.5634 32.453 L 10.0619 35.1089 L 5.31416 34.2123 z"/>
      <ellipse style="display:inline;opacity:0;fill:#3e3d41;stroke-width:0.264583" id="path1-8" inkscape:label="pivot_hair_tail_left" cx="9.138870974638149" cy="28.37014502536186" rx="0.07015926836185482" ry="0.07015926836185571"/>
    </g>
    <g inkscape:groupmode="layer" id="layer15" inkscape:label="hair_tail_right" style="display:inline">
      <path style="display:inline;fill:#bbbcc8;fill-opacity:1;stroke-width:0.169051" id="rect3-9-2-1-8-7-4" d="M 26.8462 28.0097 L 22.8942 28.7564 L 24.0272 34.7534 L 27.9792 34.0068 z"/>
      <path style="display:inline;fill:#bbbcc8;fill-opacity:1;stroke-width:0.179714" id="rect3-9-2-1-8-7-6-6" d="M 28.019 32.9884 L 23.8177 33.7821 L 25.0221 40.1575 L 29.2234 39.3637 z"/>
      <path style="display:inline;fill:#bbbcc8;fill-opacity:1;stroke-width:0.134949" id="rect3-9-2-1-8-7-6-4-1" d="M 32.0257 46.0034 L 28.9279 46.6103 L 29.816 51.4852 L 32.9138 50.8783 z"/>
      <path style="display:inline;fill:#bbbcc8;fill-opacity:1;stroke-width:0.134949" id="rect3-9-2-1-8-7-6-4-0-82" d="M 29.592 45.5765 L 27.0138 47.3978 L 29.8188 51.4826 L 32.3971 49.6613 z"/>
      <path style="display:inline;fill:#bbbcc8;fill-opacity:1;stroke-width:0.134949" id="rect3-9-2-1-8-7-6-4-0-8-1" d="M 27.8895 41.5697 L 25.0199 42.8851 L 27.0248 47.4165 L 29.8944 46.1011 z"/>
      <path style="display:inline;fill:#bbbcc8;fill-opacity:1;stroke-width:0.134949" id="rect3-9-2-1-8-7-6-4-0-8-2-1" d="M 27.1617 37.3872 L 24.072 38.0345 L 25.0237 42.8974 L 28.1133 42.2501 z"/>
      <path style="display:inline;fill:#bbbcc8;fill-opacity:1;stroke-width:0.0915859" id="rect3-9-2-1-8-7-6-4-0-8-2-6-9" d="M 26.0818 34.5766 L 23.9424 34.6883 L 24.0732 38.0487 L 26.2126 37.937 z"/>
      <path style="display:inline;fill:#bbbcc8;fill-opacity:1;stroke-width:0.222772" id="rect3-9-2-1-8-7-6-4-5-7" d="M 29.9522 38.1035 L 25.0623 39.6264 L 27.3421 47.6307 L 32.2321 46.1078 z"/>
      <path style="display:inline;fill:#bbbcc8;fill-opacity:1;stroke-width:0.109223" id="rect3-9-2-1-8-7-6-4-5-4-6" d="M 28.2784 34.5173 L 26.1584 35.8631 L 28.2606 39.3604 L 30.3806 38.0146 z"/>
      <path style="display:inline;fill:#bbbcc8;fill-opacity:1;stroke-width:0.109223" id="rect3-9-2-1-8-7-6-4-5-4-8-2" d="M 30.3731 37.9969 L 27.8101 39.1758 L 29.7059 43.5773 L 32.2689 42.3984 z"/>
      <path style="display:inline;fill:#bbbcc8;fill-opacity:1;stroke-width:0.109223" id="rect3-9-2-1-8-7-6-4-5-4-8-9-9" d="M 32.2681 42.3922 L 29.5001 42.9368 L 30.3101 47.6603 L 33.0781 47.1157 z"/>
      <path style="display:inline;fill:#bbbcc8;fill-opacity:1;stroke-width:0.0839378" id="rect3-9-2-1-8-7-6-4-5-4-8-9-2-5" d="M 33.0476 47.1055 L 30.684 47.0867 L 30.562 50.852 L 32.9256 50.8708 z"/>
      <path style="fill:#b7dff3;fill-opacity:1;stroke-width:0.270611" id="rect7-2" d="M 27.9564 31.5245 L 23.2087 32.4211 L 23.7103 35.077 L 28.458 34.1804 z"/>
      <ellipse style="opacity:0;fill:#3e3d41;stroke-width:0.264583" id="path1" inkscape:label="pivot_hair_tail_right" cx="24.67814897463814" cy="28.37014502536186" rx="0.07015926836185571" ry="0.07015926836185571"/>
    </g>
    <g inkscape:groupmode="layer" id="layer20" inkscape:label="arm_left" style="display:inline">
      <path style="display:inline;fill:#fbeadc;fill-opacity:1;stroke-width:0.0515754" id="rect2-7" d="M 6.97132 40.0876 L 8.9664 40.9694 L 8.26421 42.558 L 6.26912 41.6762 z"/>
      <path style="display:inline;fill:#fbeadc;fill-opacity:1;stroke-width:0.0517368" id="rect2-7-8" d="M 6.2691 41.6759 L 8.38307 41.1111 L 8.83279 42.7944 L 6.71882 43.3592 z"/>
      <path style="display:inline;fill:#fbeadc;fill-opacity:1;stroke-width:0.0515754" id="rect2-7-5" d="M 8.10639 44.1317 L 7.45414 42.0502 L 9.11155 41.5309 L 9.76381 43.6124 z"/>
      <path style="display:inline;fill:#fbeadc;fill-opacity:1;stroke-width:0.0515754" id="rect2-7-7" d="M 13.076 33.8084 L 14.5217 36.1332 L 12.2775 37.5288 L 10.8318 35.204 z"/>
      <path style="display:inline;fill:#fbeadc;fill-opacity:1;stroke-width:0.0515754" id="rect2-7-7-3" d="M 14.3698 35.3678 L 12.7198 34.4499 L 13.0779 33.8062 L 14.7279 34.724 z"/>
      <path style="display:inline;fill:#fbeadc;fill-opacity:1;stroke-width:0.0515754" id="rect2-7-7-3-8" d="M 13.741 36.3298 L 13.5276 34.8985 L 14.7435 34.7173 L 14.9568 36.1486 z"/>
      <path style="display:inline;fill:#fbeadc;fill-opacity:1;stroke-width:0.0515754" id="rect2-7-7-0" d="M 13.3601 38.3703 L 14.9557 36.1457 L 12.8083 34.6054 L 11.2126 36.83 z"/>
      <path style="display:inline;fill:#ffffff;fill-opacity:1;stroke-width:0.0719446" id="rect9-6-5-5-3-9-5-3-5-6" d="M 9.28867 36.7918 L 10.5943 35.5055 L 13.3143 38.2664 L 12.0087 39.5527 z"/>
      <path style="display:inline;fill:#ffffff;fill-opacity:1;stroke-width:0.0719446" id="rect9-6-5-5-3-9-5-3-5-6-30" d="M 12.1042 38.9796 L 12.8152 37.9231 L 13.4243 38.333 L 12.7133 39.3895 z"/>
      <path style="display:inline;fill:#ffffff;fill-opacity:1;stroke-width:0.072406" id="rect9-6-5-5-3-9-5-3-5-6-3" d="M 13.0074 38.6168 L 10.7031 35.2663 L 11.1196 34.9798 L 13.4239 38.3303 z"/>
      <path style="display:inline;fill:#ffffff;fill-opacity:1;stroke-width:0.0949728" id="rect9-6-5-5-3-9-5-3-5-6-3-3" d="M 10.7209 37.4636 L 9.62027 36.4807 L 10.7055 35.2655 L 11.8061 36.2484 z"/>
      <path style="display:inline;fill:#fbeadc;fill-opacity:1;stroke-width:0.0517368" id="rect2-7-8-4" d="M 9.76153 43.6105 L 7.94316 42.3934 L 8.91231 40.9455 L 10.7307 42.1626 z"/>
      <path style="display:inline;fill:#fbeadc;fill-opacity:1;stroke-width:0.0482677" id="rect2-7-8-3" d="M 6.72016 43.3566 L 7.68624 41.6322 L 9.06987 42.4074 L 8.10379 44.1318 z"/>
      <path style="display:inline;fill:#3e3d41;fill-opacity:1;stroke-width:0.266379" id="rect10-1-49" d="M 10.5012 42.6145 L 6.93 40.1258 L 9.27272 36.7641 L 12.8439 39.2528 z"/>
      <ellipse style="display:inline;opacity:0;fill:#9ad7f0;fill-opacity:1;stroke-width:0.264583" id="pivot_arm_left" inkscape:label="pivot_arm_left" cx="14.463502920000003" cy="34.90670417" rx="0.15200000000000014" ry="0.1520095500000025"/>
    </g>
    <g inkscape:groupmode="layer" id="layer21" inkscape:label="arm_right" style="display:inline">
      <path style="display:inline;fill:#fbeadc;fill-opacity:1;stroke-width:0.0515754" id="rect2-7-1" d="M 26.7694 40.0458 L 24.7743 40.9277 L 25.4765 42.5163 L 27.4716 41.6345 z"/>
      <path style="display:inline;fill:#fbeadc;fill-opacity:1;stroke-width:0.0517368" id="rect2-7-8-45" d="M 27.4716 41.6342 L 25.3577 41.0694 L 24.9079 42.7526 L 27.0219 43.3174 z"/>
      <path style="display:inline;fill:#fbeadc;fill-opacity:1;stroke-width:0.0515754" id="rect2-7-5-6" d="M 25.6343 44.09 L 26.2866 42.0085 L 24.6292 41.4891 L 23.9769 43.5706 z"/>
      <path style="display:inline;fill:#fbeadc;fill-opacity:1;stroke-width:0.0515754" id="rect2-7-7-2" d="M 20.6647 33.7666 L 19.219 36.0915 L 21.4632 37.487 L 22.9089 35.1622 z"/>
      <path style="display:inline;fill:#fbeadc;fill-opacity:1;stroke-width:0.0515754" id="rect2-7-7-3-0" d="M 19.371 35.3261 L 21.0209 34.4082 L 20.6628 33.7644 L 19.0128 34.6823 z"/>
      <path style="display:inline;fill:#fbeadc;fill-opacity:1;stroke-width:0.0515754" id="rect2-7-7-0-5" d="M 20.3807 38.3286 L 18.785 36.104 L 20.9324 34.5637 L 22.5281 36.7882 z"/>
      <path style="display:inline;fill:#ffffff;fill-opacity:1;stroke-width:0.0719446" id="rect9-6-5-5-3-9-5-3-5-6-6" d="M 24.4521 36.75 L 23.1464 35.4637 L 20.4264 38.2247 L 21.732 39.511 z"/>
      <path style="display:inline;fill:#ffffff;fill-opacity:1;stroke-width:0.0719446" id="rect9-6-5-5-3-9-5-3-5-6-30-6" d="M 21.6365 38.9379 L 20.9255 37.8814 L 20.3164 38.2913 L 21.0274 39.3478 z"/>
      <path style="display:inline;fill:#ffffff;fill-opacity:1;stroke-width:0.072406" id="rect9-6-5-5-3-9-5-3-5-6-3-6" d="M 20.7333 38.5751 L 23.0376 35.2245 L 22.6211 34.9381 L 20.3168 38.2886 z"/>
      <path style="display:inline;fill:#ffffff;fill-opacity:1;stroke-width:0.0949728" id="rect9-6-5-5-3-9-5-3-5-6-3-3-7" d="M 23.0198 37.4219 L 24.1205 36.439 L 23.0353 35.2238 L 21.9346 36.2067 z"/>
      <path style="display:inline;fill:#fbeadc;fill-opacity:1;stroke-width:0.0517368" id="rect2-7-8-4-6" d="M 23.9792 43.5688 L 25.7976 42.3517 L 24.8284 40.9038 L 23.01 42.1209 z"/>
      <path style="display:inline;fill:#fbeadc;fill-opacity:1;stroke-width:0.0482677" id="rect2-7-8-3-7" d="M 27.0206 43.3149 L 26.0545 41.5905 L 24.6709 42.3656 L 25.6369 44.0901 z"/>
      <path style="fill:#3e3d41;fill-opacity:1;stroke-width:0.266379" id="rect10-1-49-7" d="M 23.2395 42.5727 L 26.8107 40.0841 L 24.468 36.7223 L 20.8968 39.211 z"/>
      <ellipse style="opacity:0;fill:#9ad7f0;fill-opacity:1;stroke-width:0.203295" id="pivot_arm_right" inkscape:label="pivot_arm_right" cx="19.203310100051606" cy="34.84220690396765" rx="0.13000189994839317" ry="0.13027691396766272"/>
      <path style="display:inline;fill:#fbeadc;fill-opacity:1;stroke-width:0.0515754" id="rect2-7-7-3-8-5" d="M 19.0009 34.6738 L 18.7875 36.105 L 20.0034 36.2862 L 20.2167 34.855 z"/>
    </g>
    <g inkscape:groupmode="layer" id="layer22" inkscape:label="leg_left" style="display:inline">
      <path style="display:inline;fill:#ffffff;fill-opacity:1;stroke-width:0.0781311" id="rect9-6-5-5-3-9-5-3-5-6-2" d="M 12.4406 53.3755 L 12.4381 51.5138 L 16.9382 51.5092 L 16.9407 53.3709 z"/>
      <path style="display:inline;fill:#ffffff;fill-opacity:1;stroke-width:0.0795654" id="rect9-6-5-5-3-9-5-3-5-6-2-9" d="M 14.386 53.0685 L 12.439 53.3781 L 12.1967 51.8523 L 14.1438 51.5428 z"/>
      <path style="display:inline;fill:#ffffff;fill-opacity:1;stroke-width:0.0145406" id="rect9-6-5-5-3-9-5-3-5-6-2-9-5" d="M 12.5539 51.813 L 12.1989 51.8694 L 12.1259 51.4098 L 12.4809 51.3534 z"/>
      <path style="display:inline;fill:#3e3d41;fill-opacity:1;stroke-width:0.212201" id="rect10-1-49-4" d="M 16.9412 51.5432 L 12.1419 51.5369 L 12.1534 49.1786 L 16.9527 49.185 z"/>
      <path style="display:inline;fill:#3e3d41;fill-opacity:1;stroke-width:0.0817555" id="rect10-1-49-4-3" d="M 12.8699 51.4498 L 12.1393 51.537 L 11.8241 49.0581 L 12.5548 48.9709 z"/>
      <path style="display:inline;fill:#fbeadc;fill-opacity:1;stroke-width:0.103207" id="rect2-7-8-3-78" d="M 11.8451 46.3879 L 16.9444 46.3822 L 16.951 49.1928 L 11.8517 49.1985 z"/>
      <path style="display:inline;fill:#fbeadc;fill-opacity:1;stroke-width:0.039822" id="rect2-7-8-3-78-9" d="M 11.5862 46.4121 L 12.3443 46.3302 L 12.5956 49.1172 L 11.8375 49.1991 z"/>
      <ellipse style="display:inline;opacity:0;fill:#9ad7f0;fill-opacity:1;stroke-width:0.264583" id="path15" inkscape:label="pivot_leg_left" cx="14.828098538501239" cy="44.87939946149877" rx="0.10000146149876343" ry="0.10000146149876343"/>
    </g>
    <g inkscape:groupmode="layer" id="layer23" inkscape:label="leg_right" style="display:inline">
      <path style="display:inline;fill:#9ad7f0;fill-opacity:1;stroke-width:0.0781311" id="rect9-6-5-5-3-9-5-3-5-6-2-4" d="M 21.4384 53.3751 L 21.441 51.5134 L 16.9409 51.5088 L 16.9384 53.3705 z"/>
      <path style="display:inline;fill:#9ad7f0;fill-opacity:1;stroke-width:0.0795654" id="rect9-6-5-5-3-9-5-3-5-6-2-9-53" d="M 19.4931 53.0681 L 21.4401 53.3777 L 21.6823 51.852 L 19.7353 51.5424 z"/>
      <path style="display:inline;fill:#9ad7f0;fill-opacity:1;stroke-width:0.0145406" id="rect9-6-5-5-3-9-5-3-5-6-2-9-5-0" d="M 21.3251 51.8126 L 21.6802 51.869 L 21.7531 51.4095 L 21.3981 51.353 z"/>
      <path style="display:inline;fill:#3e3d41;fill-opacity:1;stroke-width:0.314573" id="rect10-1-49-4-8" d="M 16.9378 51.5429 L 21.7372 51.5289 L 21.7257 46.3464 L 16.9263 46.3604 z"/>
      <path style="display:inline;fill:#3e3d41;fill-opacity:1;stroke-width:0.0817555" id="rect10-1-49-4-3-9" d="M 20.9172 51.4185 L 21.752 51.5181 L 22.4038 46.3909 L 21.569 46.2913 z"/>
      <ellipse style="opacity:0;fill:#9ad7f0;fill-opacity:1;stroke-width:0.264583" id="path16" inkscape:label="pivot_leg_right" cx="19.028097538501235" cy="44.87939946149877" rx="0.10000146149876343" ry="0.10000146149876343"/>
    </g>
    <g inkscape:groupmode="layer" id="layer18" inkscape:label="body" style="display:inline">
      <g inkscape:groupmode="layer" id="layer25" inkscape:label="white_cloth" style="display:inline">
        <path style="display:inline;opacity:1;fill:#ffffff;fill-opacity:1;stroke-width:0.273164" id="rect9" d="M 13.1047 34.1282 L 20.6453 34.1282 L 20.6453 46.6959 L 13.1047 46.6959 z"/>
        <path style="display:inline;fill:#ffffff;fill-opacity:1;stroke-width:0.0601507" id="rect9-6" d="M 13.0711 33.7408 L 16.8677 32.9176 L 17.1967 34.4352 L 13.4002 35.2584 z"/>
        <path style="display:inline;fill:#ffffff;fill-opacity:1;stroke-width:0.0603995" id="rect9-6-5" d="M 16.5386 34.4528 L 20.4144 35.2932 L 20.7484 33.7531 L 16.8725 32.9127 z"/>
        <path style="display:inline;fill:#ffffff;fill-opacity:1;stroke-width:0.125544" id="rect9-6-5-5" d="M 13.2233 46.1912 L 16.8915 35.3153 L 13.3564 34.123 L 9.68817 44.9988 z"/>
        <path style="display:inline;fill:#ffffff;fill-opacity:1;stroke-width:0.125544" id="rect9-6-5-5-5" d="M 20.4104 34.1407 L 24.0787 45.0166 L 20.5436 46.209 L 16.8753 35.3331 z"/>
        <path style="display:inline;fill:#ffffff;fill-opacity:1;stroke-width:0.0719446" id="rect9-6-5-5-3-9-5" d="M 12.2606 45.8238 L 9.70037 44.9611 L 9.25806 46.2739 L 11.8183 47.1365 z"/>
        <path style="display:inline;fill:#ffffff;fill-opacity:1;stroke-width:0.0721091" id="rect9-6-5-5-3-9-5-3" d="M 14.7141 46.2084 L 12.0426 45.7663 L 11.8159 47.1361 L 14.4874 47.5782 z"/>
        <path style="display:inline;fill:#ffffff;fill-opacity:1;stroke-width:0.0712886" id="rect9-6-5-5-3-9-5-3-0" d="M 16.818 46.4075 L 14.5659 46.259 L 14.4789 47.5793 L 16.731 47.7278 z"/>
        <path style="display:inline;fill:#ffffff;fill-opacity:1;stroke-width:0.0325873" id="rect9-6-5-5-3-9-5-3-0-1" d="M 17.2911 46.5908 L 16.7219 46.5805 L 16.7203 47.7283 L 17.2896 47.7386 z"/>
        <path style="display:inline;fill:#ffffff;fill-opacity:1;stroke-width:0.0719446" id="rect9-6-5-5-3-9-5-7" d="M 21.5137 45.8588 L 24.0739 44.9961 L 24.5162 46.3089 L 21.956 47.1715 z"/>
        <path style="display:inline;fill:#ffffff;fill-opacity:1;stroke-width:0.0719446" id="rect9-6-5-5-3-9-5-3-5" d="M 19.0866 46.2409 L 21.7521 45.7998 L 21.9782 47.1665 L 19.3128 47.6076 z"/>
        <path style="display:inline;fill:#ffffff;fill-opacity:1;stroke-width:0.0719446" id="rect9-6-5-5-3-9-5-3-0-3" d="M 17.1845 46.1703 L 19.2189 46.0362 L 19.3224 47.6064 L 17.2881 47.7405 z"/>
        <path style="display:inline;fill:#fbeadc;fill-opacity:1;stroke-width:0.0452915" id="rect2-3-8-3" d="M 16.8624 33.8971 L 17.3581 33.4028 L 16.8637 32.9072 L 16.3681 33.4015 z"/>
      </g>
      <g inkscape:groupmode="layer" id="layer29" inkscape:label="blue_decoration" style="display:inline">
        <path style="opacity:1;fill:#9bd7f1;fill-opacity:1;stroke-width:0.264583" id="rect13" d="M 10.522 42.5663 L 13.1514 43.5138 L 12.3097 45.8498 L 9.68028 44.9023 z"/>
        <path style="display:inline;fill:#9bd7f1;fill-opacity:1;stroke-width:0.264583" id="rect13-4" d="M 12.7067 43.3984 L 15.4649 43.8501 L 15.0636 46.3005 L 12.3054 45.8487 z"/>
        <path style="display:inline;fill:#9bd7f1;fill-opacity:1;stroke-width:0.264583" id="rect13-7" d="M 23.2658 42.5942 L 20.6365 43.5417 L 21.4782 45.8776 L 24.1076 44.9302 z"/>
        <path style="display:inline;fill:#9bd7f1;fill-opacity:1;stroke-width:0.264583" id="rect13-4-05" d="M 21.0987 43.4146 L 18.3405 43.8663 L 18.7418 46.3167 L 21.5 45.8649 z"/>
        <path style="display:inline;fill:#9bd7f1;fill-opacity:1;stroke-width:0.303565" id="rect13-4-0" d="M 15.0825 43.8165 L 18.7701 43.8367 L 18.7464 46.3139 L 15.0588 46.2937 z"/>
      </g>
      <g inkscape:groupmode="layer" id="layer26" inkscape:label="black_decoration" style="display:inline">
        <path style="opacity:1;fill:#3e3d41;fill-opacity:1;stroke-width:0.264583" id="rect10" d="M 13.1332 34.0951 L 13.853 34.3105 L 12.3527 39.3249 L 11.6328 39.1095 z"/>
        <path style="display:inline;fill:#3e3d41;fill-opacity:1;stroke-width:0.264583" id="rect10-8" d="M 21.4594 39.3415 L 22.1792 39.1261 L 20.6788 34.1117 L 19.959 34.3271 z"/>
        <path style="display:inline;fill:#3e3d41;fill-opacity:1;stroke-width:0.415755" id="rect10-8-1" d="M 21.8685 38.3643 L 21.861 39.3609 L 12.1172 39.3377 L 12.1247 38.3411 z"/>
        <path style="display:inline;fill:#3e3d41;fill-opacity:1;stroke-width:0.0510235" id="rect10-8-1-3" d="M 12.2825 39.114 L 12.282 39.3393 L 11.6329 39.3341 L 11.6334 39.1088 z"/>
        <path style="display:inline;fill:#3e3d41;fill-opacity:1;stroke-width:0.0523781" id="rect10-8-1-3-8" d="M 22.1786 39.1257 L 22.1781 39.3631 L 21.529 39.3576 L 21.5295 39.1202 z"/>
        <path style="display:inline;fill:#3e3d41;fill-opacity:1;stroke-width:0.266379" id="rect10-1" d="M 10.4581 42.7263 L 10.7698 41.993 L 13.1245 42.9937 L 12.8128 43.727 z"/>
        <path style="display:inline;fill:#3e3d41;fill-opacity:1;stroke-width:0.0425239" id="rect10-1-6" d="M 10.5206 42.7471 L 10.4544 42.7247 L 10.709 41.9723 L 10.7752 41.9947 z"/>
        <path style="display:inline;fill:#3e3d41;fill-opacity:1;stroke-width:0.0425239" id="rect10-1-6-3" d="M 23.071 42.0048 L 23.0048 42.0271 L 23.2594 42.7795 L 23.3256 42.7571 z"/>
        <path style="display:inline;fill:#3e3d41;fill-opacity:1;stroke-width:0.264583" id="rect10-1-4" d="M 12.8131 43.7274 L 12.9144 42.9424 L 15.4348 43.2675 L 15.3335 44.0524 z"/>
        <path style="display:inline;fill:#3e3d41;fill-opacity:1;stroke-width:0.293932" id="rect10-1-4-5" d="M 15.331 44.0532 L 15.3381 43.2618 L 18.4743 43.2801 L 18.4672 44.0715 z"/>
        <path style="display:inline;fill:#3e3d41;fill-opacity:1;stroke-width:0.264583" id="rect10-1-9" d="M 23.3247 42.752 L 23.0152 42.0236 L 20.6764 43.0176 L 20.9859 43.746 z"/>
        <path style="display:inline;fill:#3e3d41;fill-opacity:1;stroke-width:0.264583" id="rect10-1-4-2" d="M 20.9889 43.7471 L 20.8877 42.9621 L 18.3673 43.2872 L 18.4685 44.0721 z"/>
      </g>
      <g inkscape:groupmode="layer" id="layer27" inkscape:label="tie" style="display:inline">
        <g inkscape:groupmode="layer" id="layer3" inkscape:label="tie_tail" style="display:inline">
          <path style="display:inline;fill:#fdcd70;fill-opacity:1;stroke-width:0.172978" id="rect11-2" d="M 16.3703 35.8904 L 17.6322 35.6756 L 18.6141 41.4434 L 17.3523 41.6582 z"/>
          <path style="display:inline;fill:#fdcd70;fill-opacity:1;stroke-width:0.172978" id="rect11-2-8" d="M 15.1934 41.4489 L 16.4552 41.6637 L 17.4371 35.8959 L 16.1753 35.6811 z"/>
          <path style="display:inline;fill:#fdcd70;fill-opacity:1;stroke-width:0.116726" id="rect11-2-8-4" d="M 16.2144 41.6173 L 17.4943 41.6264 L 17.5854 38.9635 L 16.3055 38.9545 z"/>
          <path style="display:inline;fill:#fdcd70;fill-opacity:1;stroke-width:0.0767828" id="rect11-2-8-4-2" d="M 16.5912 41.2883 L 16.9007 42.0717 L 18.6065 41.4508 L 18.297 40.6674 z"/>
          <path style="display:inline;fill:#fdcd70;fill-opacity:1;stroke-width:0.0765568" id="rect11-2-8-4-2-7" d="M 15.1976 41.4516 L 15.5061 40.6705 L 17.2069 41.2896 L 16.8984 42.0707 z"/>
          <ellipse style="opacity:0;fill:#3e3d41;stroke-width:0.264583" id="path2" inkscape:label="pivot_tie_tail" cx="16.887323538501235" cy="35.53786753850124" rx="0.10000146149876343" ry="0.10000146149876343"/>
        </g>
        <path style="display:inline;opacity:1;fill:#3e3d41;fill-opacity:1;stroke-width:0.175958" id="rect11" d="M 15.5694 34.2026 L 16.8656 33.911 L 17.2956 35.8219 L 15.9993 36.1135 z"/>
        <path style="display:inline;fill:#3e3d41;fill-opacity:1;stroke-width:0.175958" id="rect11-5" d="M 16.4368 35.8239 L 17.7331 36.1155 L 18.163 34.2046 L 16.8667 33.913 z"/>
      </g>
    </g>
    <g inkscape:groupmode="layer" id="layer2" inkscape:label="head" style="display:inline">
      <g inkscape:groupmode="layer" id="layer4" inkscape:label="hair_back" style="display:inline">
        <g inkscape:groupmode="layer" id="layer16" inkscape:label="braided_hair">
          <path style="display:inline;fill:#bbbcc8;fill-opacity:1;stroke-width:0.18588" id="rect3-8" d="M 15.0337 9.52401 L 18.7499 9.52401 L 18.7499 22.8142 L 15.0337 22.8142 z"/>
          <path style="display:inline;fill:#bbbcc8;fill-opacity:1;stroke-width:0.0840657" id="rect3-8-2" d="M 14.7579 25.4225 L 16.8648 23.2869 L 19.0004 25.3938 L 16.8935 27.5294 z"/>
          <path style="opacity:1;fill:#b7dff3;fill-opacity:1;stroke-width:0.264583" id="rect8" d="M 14.7558 22.3718 L 19.0121 22.3718 L 19.0121 24.8039 L 14.7558 24.8039 z"/>
        </g>
        <path style="fill:#babac7;fill-opacity:1;stroke-width:0.128484" id="rect1-7-3" d="M 9.64156 14.1599 L 12.2989 17.958 L 2.65732 24.7037 L -1.51541e-05 20.9055 z"/>
        <path style="fill:#babac7;fill-opacity:1;stroke-width:0.128484" id="rect1-7-8" d="M 21.513 17.1271 L 24.6325 13.414 L 33.7901 21.1076 L 30.6706 24.8207 z"/>
        <path style="opacity:1;fill:#bbbcc8;fill-opacity:1;stroke-width:0.4843" id="rect3" d="M 9.34591 9.36393 L 24.5681 9.36393 L 24.5681 31.3888 L 9.34591 31.3888 z"/>
        <path style="display:inline;fill:#bbbcc8;fill-opacity:1;stroke-width:0.235828" id="rect3-1" d="M 2.91723 23.258 L 8.94491 18.487 L 15.363 26.5956 L 9.33535 31.3666 z"/>
        <path style="display:inline;fill:#bbbcc8;fill-opacity:1;stroke-width:0.235828" id="rect3-1-2" d="M 18.4268 26.6725 L 24.4545 31.4435 L 30.8726 23.3348 L 24.8449 18.5638 z"/>
        <path style="display:inline;fill:#bbbcc8;fill-opacity:1;stroke-width:0.23131" id="rect3-9" d="M 9.36876 9.42441 L 14.3357 12.9576 L 7.1247 23.0948 L 2.15777 19.5617 z"/>
        <path style="display:inline;fill:#bbbcc8;fill-opacity:1;stroke-width:0.23131" id="rect3-9-2" d="M 27.092 23.1556 L 32.024 19.5739 L 24.7138 9.50788 L 19.7818 13.0896 z"/>
        <path style="display:inline;fill:#bbbcc8;fill-opacity:1;stroke-width:0.23131" id="rect3-9-2-1" d="M 27.834 28.2376 L 32.9536 26.2192 L 30.2535 19.3704 L 25.1339 21.3889 z"/>
        <path style="display:inline;fill:#bbbcc8;fill-opacity:1;stroke-width:0.23131" id="rect3-9-2-1-4" d="M 3.55931 19.7311 L 8.67892 21.7496 L 5.97878 28.5983 L 0.859176 26.5799 z"/>
        <g inkscape:groupmode="layer" id="layer7" inkscape:label="celestial_updo" style="display:inline">
          <path style="display:inline;fill:#bbbcc8;fill-opacity:1;stroke-width:0.108463" id="rect3-9-29" d="M 9.49109 2.78196 L 11.4409 4.87176 L 7.17576 8.85128 L 5.22592 6.76149 z"/>
          <path style="display:inline;fill:#bbbcc8;fill-opacity:1;stroke-width:0.108463" id="rect3-9-29-3" d="M 15.2216 3.89772 L 14.68 6.70411 L 8.95229 5.59878 L 9.49386 2.79239 z"/>
          <path style="display:inline;fill:#bbbcc8;fill-opacity:1;stroke-width:0.108463" id="rect3-9-29-3-2" d="M 17.8401 9.10141 L 15.2884 10.389 L 12.6605 5.18101 L 15.2122 3.89346 z"/>
          <path style="display:inline;fill:#bbbcc8;fill-opacity:1;stroke-width:0.125484" id="rect3-9-29-8" d="M 9.95784 12.6061 L 6.73369 13.3403 L 5.23517 6.75999 L 8.45933 6.02576 z"/>
          <path style="display:inline;fill:#bbbcc8;fill-opacity:1;stroke-width:0.108463" id="rect3-9-29-7" d="M 24.4506 3.05121 L 22.5008 5.141 L 26.766 9.12053 L 28.7158 7.03074 z"/>
          <path style="display:inline;fill:#bbbcc8;fill-opacity:1;stroke-width:0.108463" id="rect3-9-29-3-26" d="M 18.7202 4.16697 L 19.2618 6.97335 L 24.9894 5.86802 L 24.4479 3.06164 z"/>
          <path style="display:inline;fill:#bbbcc8;fill-opacity:1;stroke-width:0.108463" id="rect3-9-29-3-2-0" d="M 16.1016 9.37066 L 18.6534 10.6582 L 21.2812 5.45026 L 18.7295 4.16271 z"/>
          <path style="display:inline;fill:#bbbcc8;fill-opacity:1;stroke-width:0.125484" id="rect3-9-29-8-1" d="M 23.9839 12.8754 L 27.2081 13.6096 L 28.7066 7.02923 L 25.4824 6.29501 z"/>
          <g inkscape:groupmode="layer" id="layer8" inkscape:label="hair_accessory">
            <g inkscape:groupmode="layer" id="layer9" inkscape:label="blue_hair_accessory_left" style="display:inline">
              <path style="display:inline;fill:#b3e0f4;fill-opacity:1;stroke-width:0.374621" id="rect4-4-1-1" d="M 15.3037 6.15279 L 16.7725 4.19602 L 11.3814 0.149446 L 9.91262 2.10622 z"/>
              <ellipse style="display:inline;fill:#3e3d41;stroke-width:0.0969152" id="path4-23" inkscape:label="pivot_blue_hair_accessory_left" cx="16.766665568711147" cy="5.3053552002305855" rx="0.09793438128885334" ry="0.013700559230577447"/>
            </g>
            <g inkscape:groupmode="layer" id="layer12" inkscape:label="blue_hair_accessory_right">
              <path style="display:inline;fill:#b3e0f4;fill-opacity:1;stroke-width:0.374621" id="rect4-4-1" d="M 22.6397 -1.47894e-05 L 24.1084 1.95676 L 18.7173 6.00333 L 17.2486 4.04656 z"/>
              <ellipse style="display:inline;fill:#3e3d41;stroke-width:0.0969152" id="path4-2" inkscape:label="pivot_blue_hair_accessory_right" cx="16.766665568711147" cy="5.3053552002305855" rx="0.09793438128885334" ry="0.013700559230577447"/>
            </g>
            <g inkscape:groupmode="layer" id="layer14" inkscape:label="white_hair_accessory_right">
              <path style="display:inline;fill:#ffffff;fill-opacity:1;stroke-width:0.374621" id="rect4-4-1-1-3-8" d="M 21.7463 5.96127 L 21.0478 8.11563 L 16.4669 6.63055 L 17.1653 4.47618 z"/>
              <ellipse style="display:inline;fill:#3e3d41;stroke-width:0.0969152" id="path4-1" inkscape:label="pivot_white_hair_accessory_right" cx="16.766665568711147" cy="5.3053552002305855" rx="0.09793438128885334" ry="0.013700559230577447"/>
            </g>
            <g inkscape:groupmode="layer" id="layer17" inkscape:label="white_hair_accessory_left">
              <path style="display:inline;fill:#ffffff;fill-opacity:1;stroke-width:0.374621" id="rect4-4-1-1-3" d="M 17.2578 6.6159 L 16.5594 4.46154 L 11.9784 5.94662 L 12.6768 8.10099 z"/>
              <ellipse style="opacity:1;fill:#3e3d41;stroke-width:0.0969152" id="path4" inkscape:label="pivot_white_hair_accessory_left" cx="16.910154568711146" cy="5.315704200230583" rx="0.09793438128885512" ry="0.013700559230577447"/>
            </g>
            <path style="display:inline;opacity:1;fill:#a8d773;fill-opacity:1;stroke-width:0.264583" id="rect4" sodipodi:insensitive="true" d="M 16.0564 2.98005 L 17.6426 2.98005 L 17.6426 7.70838 L 16.0564 7.70838 z"/>
            <path style="display:inline;fill:#a8d773;fill-opacity:1;stroke-width:0.264583" id="rect4-4" sodipodi:insensitive="true" d="M 19.1962 4.51804 L 19.1962 6.10432 L 14.4679 6.10432 L 14.4679 4.51804 z"/>
          </g>
        </g>
      </g>
      <g inkscape:groupmode="layer" id="layer5" inkscape:label="face" style="display:inline">
        <g inkscape:groupmode="layer" id="layer6" inkscape:label="ear_left">
          <path style="display:inline;fill:#fbeadc;fill-opacity:1;stroke-width:0.0796688" id="rect2-6" d="M 2.13173 27.158 L 4.62448 25.5097 L 6.29298 28.033 L 3.80023 29.6813 z"/>
        </g>
        <g inkscape:groupmode="layer" id="layer33" inkscape:label="ear_right">
          <path style="display:inline;fill:#fbeadc;fill-opacity:1;stroke-width:0.0493975" id="rect2-6-6" d="M 27.571 27.7771 L 30.0638 29.4254 L 31.7322 26.9021 L 29.2395 25.2538 z"/>
        </g>
        <path style="display:inline;fill:#fbeadc;fill-opacity:1;stroke-width:0.233073" id="rect2" d="M 7.99683 19.6436 L 26.4197 19.6436 L 26.4197 31.4365 L 7.99683 31.4365 z"/>
        <path style="display:inline;fill:#fbeadc;fill-opacity:1;stroke-width:0.067717" id="rect2-3" d="M 8.36571 29.5638 L 17.3061 31.4516 L 16.8979 33.3848 L 7.9575 31.4969 z"/>
        <path style="display:inline;fill:#fbeadc;fill-opacity:1;stroke-width:0.0710219" id="rect2-3-8" d="M 16.8884 33.3848 L 26.2652 31.4048 L 25.837 29.3773 L 16.4603 31.3573 z"/>
        <g inkscape:groupmode="layer" id="layer11" inkscape:label="rouge" style="display:inline">
          <path style="opacity:1;fill:#f0b0c2;fill-opacity:1;stroke-width:0.262129" id="rect6" d="M 21.8359 30.548 L 24.6305 30.548 L 24.6305 29.3491 L 21.8359 29.3491 z"/>
          <path style="fill:#f0b0c2;fill-opacity:1;stroke-width:0.262129" id="rect6-1" d="M 9.04489 30.5811 L 11.8396 30.5811 L 11.8396 29.3822 L 9.04489 29.3822 z"/>
        </g>
        <g inkscape:groupmode="layer" id="layer30" inkscape:label="eye_left" style="display:inline">
          <path style="display:inline;fill:#6fb664;fill-opacity:1;stroke-width:0.351376" id="rect6-1-4" d="M 10.6076 28.4313 L 12.7243 28.4313 L 12.7243 25.5871 L 10.6076 25.5871 z"/>
        </g>
        <g inkscape:groupmode="layer" id="layer31" inkscape:label="eye_right" style="display:inline">
          <path style="display:inline;fill:#6fb664;fill-opacity:1;stroke-width:0.351376" id="rect6-1-4-9" d="M 20.9925 25.6532 L 23.1092 25.6532 L 23.1092 28.4975 L 20.9925 28.4975 z"/>
        </g>
        <g inkscape:groupmode="layer" id="layer10" inkscape:label="mouth">
          <path style="opacity:1;fill:#956355;fill-opacity:1;stroke-width:0.153204" id="rect5" d="M 16.773 30.7743 L 18.8362 30.4324 L 18.9277 30.9843 L 16.8645 31.3262 z"/>
          <path style="fill:#956355;fill-opacity:1;stroke-width:0.151897" id="rect5-4" d="M 14.8209 30.9877 L 16.8665 31.3267 L 16.9572 30.7794 L 14.9116 30.4404 z"/>
        </g>
        <g inkscape:groupmode="layer" id="layer32" inkscape:label="eyebrow_left">
          <path style="opacity:1;fill:#3e3d41;fill-opacity:1;stroke-width:0.157893" id="rect16" d="M 10.5536 21.3793 L 13.4759 21.3793 A 0.0190404 0.0124023 0 0 1 13.4949 21.3917 L 13.4949 21.6709 A 0.0190404 0.0124023 0 0 1 13.4759 21.6833 L 10.5536 21.6833 A 0.0190404 0.0124023 0 0 1 10.5346 21.6709 L 10.5346 21.3917 A 0.0190404 0.0124023 0 0 1 10.5536 21.3793 z"/>
        </g>
        <g inkscape:groupmode="layer" id="layer32-5" inkscape:label="eyebrow_right" style="display:inline">
          <path style="display:inline;fill:#3e3d41;fill-opacity:1;stroke-width:0.157893" id="rect16-5" d="M 20.3473 21.3793 L 23.2695 21.3793 A 0.0190404 0.0124023 0 0 1 23.2886 21.3917 L 23.2886 21.6709 A 0.0190404 0.0124023 0 0 1 23.2695 21.6833 L 20.3473 21.6833 A 0.0190404 0.0124023 0 0 1 20.3283 21.6709 L 20.3283 21.3917 A 0.0190404 0.0124023 0 0 1 20.3473 21.3793 z"/>
        </g>
      </g>
      <g inkscape:label="hair_front" id="layer1" inkscape:groupmode="layer" style="display:inline">
        <path style="display:inline;fill:#babac7;fill-opacity:1;stroke-width:0.106765" id="rect1-1" d="M 9.5776 9.35952 L 24.6295 9.35952 L 24.6295 14.41 L 9.5776 14.41 z"/>
        <path style="display:inline;fill:#babac7;fill-opacity:1;stroke-width:0.0528226" id="rect1-1-6" d="M 9.11267 9.35275 L 15.0678 7.55466 L 15.9325 10.4184 L 9.97734 12.2165 z"/>
        <path style="display:inline;fill:#babac7;fill-opacity:1;stroke-width:0.0528226" id="rect1-1-6-1" d="M 17.9891 10.4804 L 23.9442 12.2784 L 24.8089 9.41474 L 18.8538 7.61665 z"/>
        <path style="fill:#babac7;fill-opacity:1;stroke-width:0.128484" id="rect1-7" d="M 9.40142 10.4382 L 15.829 15.1586 L 7.65712 26.2858 L 1.22956 21.5653 z"/>
        <path style="display:inline;fill:#babac7;fill-opacity:1;stroke-width:0.128484" id="rect1-7-7" d="M 18.2507 15.048 L 24.7354 10.4064 L 32.7708 21.6325 L 26.2862 26.2741 z"/>
        <g inkscape:groupmode="layer" id="layer19" inkscape:label="fringe" style="display:inline">
          <path style="display:inline;fill:#babac7;fill-opacity:1;stroke-width:0.108018" id="rect1" d="M 13.4737 10.6366 L 20.6291 10.6366 L 20.6291 21.5115 L 13.4737 21.5115 z"/>
          <path style="display:inline;fill:#babac7;fill-opacity:1;stroke-width:0.0339582" id="rect1-3" d="M 21.2975 15.7818 L 23.6082 17.4334 L 20.0453 22.4182 L 17.7346 20.7666 z"/>
          <path style="display:inline;fill:#babac7;fill-opacity:1;stroke-width:0.0339582" id="rect1-3-8" d="M 13.699 22.4232 L 16.0098 20.7716 L 12.4469 15.7868 L 10.1361 17.4384 z"/>
          <path style="display:inline;fill:#babac7;fill-opacity:1;stroke-width:0.029526" id="rect1-3-1" d="M 20.05 22.4118 L 16.8656 25.5914 L 13.686 22.4071 L 16.8703 19.2275 z"/>
          <ellipse style="opacity:0;fill:#3e3d41;stroke-width:0.264583" id="path5" inkscape:label="pivot_fringe" cx="17.153671753020497" cy="14.18364990519209" rx="0.22217103697950513" ry="0.19878460519208652"/>
        </g>
        <g inkscape:groupmode="layer" id="layer28" inkscape:label="temple_left" style="display:inline">
          <path style="display:inline;fill:#babac7;fill-opacity:1;stroke-width:0.084644" id="rect1-0" d="M 3.33353 22.5138 L 7.84325 21.4408 L 10.1403 31.0949 L 5.63053 32.1679 z"/>
          <ellipse style="opacity:0;fill:#3e3d41;stroke-width:0.264583" id="path6" inkscape:label="pivot_temple_left" cx="6.811178889191181" cy="21.811071623489685" rx="0.07600588380881845" ry="0.11108551348968021"/>
        </g>
        <g inkscape:groupmode="layer" id="layer34" inkscape:label="temple_right">
          <path style="display:inline;fill:#babac7;fill-opacity:1;stroke-width:0.0782237" id="rect1-0-2" d="M 23.8653 31.2446 L 28.0826 32.248 L 30.3158 22.8621 L 26.0985 21.8587 z"/>
          <ellipse style="opacity:0;fill:#3e3d41;stroke-width:0.264583" id="path7" inkscape:label="pivot_temple_right" cx="27.373392632850713" cy="21.805227538043006" rx="0.09354570114928507" ry="0.10523891804300689"/>
        </g>
      </g>
      <ellipse style="opacity:0;fill:#9ad7f0;fill-opacity:1;stroke-width:0.24003" id="pivot_head" inkscape:label="pivot_head" cx="16.874770999999996" cy="33.11071400000001" rx="0.08600000300000055" ry="0.08526611300000297"/>
    </g>
  </g>
</svg>
